<svg width="43" height="43" viewBox="0 0 43 43" fill="none" xmlns="http://www.w3.org/2000/svg">
<mask id="mask0_0_29" style="mask-type:alpha" maskUnits="userSpaceOnUse" x="0" y="0" width="43" height="43">
<path d="M3.02226 1.86737L10.9137 0.100942C12.7607 -0.319635 14.6076 0.605639 15.2792 2.28796L18.9731 10.8678C19.6447 12.3819 19.225 14.2324 17.8817 15.3259L14.5237 18.1018C16.8743 22.4758 20.5682 26.0928 24.9337 28.5322L27.7041 25.1675C28.7955 23.8216 30.6424 23.4011 32.1535 24.074L40.7165 27.691C42.3958 28.448 43.319 30.2986 42.8992 32.1491L41.1362 40.0561C40.7165 41.8226 39.1215 43 37.3585 43C16.7903 43 0 26.3451 0 5.65259C0 3.88615 1.25927 2.28796 3.02226 1.86737ZM37.1906 38.9626L38.9536 31.3921L30.7264 27.8592L26.0251 33.5791C17.7138 29.6257 13.4323 25.3357 9.48655 17.0083L15.1953 12.2978L11.6693 4.05441L4.02967 5.82081C4.11365 24.074 18.9731 38.8783 37.1906 38.9626Z" fill="black"/>
</mask>
<g mask="url(#mask0_0_29)">
<rect width="43" height="43" fill="#BB0211"/>
</g>
</svg>
